<svg data-v-bddf862b="" aria-label="" role="img" class="ds-logo__image" xmlns="http://www.w3.org/2000/svg" width="92" height="30" viewBox="0 0 92 30" fill="#FFFFFF" data-j-logo-image=""><path d="M0.666626 7H14C15.4733 7 16.6666 8.19333 16.6666 9.66667V23H3.33329C1.85996 23 0.666626 21.8067 0.666626 20.3333V13.6667H7.33329V19H9.99996V11H0.666626V7Z" data-v-bddf862b=""></path><path d="M75.3333 7V23H82V11H84.6666V23H91.3333V9.66667C91.3333 8.19333 90.14 7 88.6666 7H75.3333Z" data-v-bddf862b=""></path><path d="M38 29.6667H51.3333C52.8067 29.6667 54 28.4733 54 27V7H47.3333V19H44.6667V7H38V20.3333C38 21.8067 39.1933 23 40.6667 23H47.3333V25.6667H38V29.6667Z" data-v-bddf862b=""></path><path d="M72.6666 23H59.3333C57.86 23 56.6666 21.8067 56.6666 20.3333V7H70C71.4733 7 72.6666 8.19333 72.6666 9.66667V16.3333H66V11H63.3333V19H72.6666V23Z" data-v-bddf862b=""></path><path d="M35.3333 0.333344V23H21.9999C20.5266 23 19.3333 21.8067 19.3333 20.3333V9.66668C19.3333 8.19334 20.5266 7.00001 21.9999 7.00001H25.9999V19H28.6666V0.333344H35.3333Z" data-v-bddf862b=""></path></svg>