<svg xmlns="http://www.w3.org/2000/svg" fill="none" viewBox="0 0 40 26"><path fill="#fff" d="M0 0h40v26H0z"/><path fill="#fff" d="M0 0h40v26H0z"/><path fill="#101820" fill-rule="evenodd" d="M6.1 17.666c-.396 0-.598-.195-.598-.515 0-.597.666-.798 1.881-.927 0 .796-.538 1.442-1.287 1.442zm.522-4.476c-.868 0-1.866.409-2.408.841l.495 1.045c.434-.398 1.137-.738 1.77-.738.603 0 .936.201.936.608 0 .272-.22.41-.637.465C5.221 15.612 4 16.042 4 17.242c0 .952.677 1.527 1.735 1.527.756 0 1.428-.42 1.747-.97v.82h1.409v-3.44c0-1.42-.985-1.992-2.268-1.992zm14.134.155v5.268h1.506v-2.538c0-1.206.73-1.56 1.239-1.56.23-.002.453.063.644.19l.276-1.393a1.7 1.7 0 0 0-.672-.122c-.774 0-1.261.343-1.582 1.04v-.885zm10.648-.155c-.797 0-1.393.47-1.703.925-.287-.587-.896-.925-1.627-.925-.796 0-1.348.442-1.603.951v-.796h-1.453v5.268h1.508V15.9c0-.97.51-1.44.986-1.44.43 0 .827.279.827.998v3.155h1.505V15.9c0-.984.497-1.44.995-1.44.399 0 .822.29.822.987v3.166h1.505v-3.642c0-1.184-.797-1.78-1.76-1.78m-14.317.154h-1.365v-.536c0-.697.398-.895.74-.895.234.002.465.06.673.168l.464-1.063s-.471-.308-1.328-.308c-.962 0-2.057.543-2.057 2.246v.388h-2.281v-.536c0-.697.397-.895.74-.895.235 0 .465.057.672.168l.465-1.063c-.277-.162-.723-.308-1.327-.308-.962 0-2.058.543-2.058 2.246v.388h-.872v1.162h.874v4.106h1.506v-4.106h2.284v4.106h1.505v-4.106h1.365z" clip-rule="evenodd"/><path fill="#101820" d="M19.492 13.345h-1.504v5.266h1.503z"/><path fill="#4A4AF4" fill-rule="evenodd" d="M18.043 12.45h1.473c.86-2.703 3.775-5.078 7.243-5.078 4.217 0 7.861 3.21 7.861 8.209a10.3 10.3 0 0 1-.418 3.032h1.43l.014-.05c.241-.973.36-1.974.354-2.977C36 10.012 31.938 6 26.762 6c-4.067 0-7.691 2.822-8.718 6.451z" clip-rule="evenodd"/></svg>