<svg xmlns="http://www.w3.org/2000/svg" fill="none" viewBox="0 0 40 26"><path fill="#fff" d="M0 0h40v26H0z"/><path fill="#000" d="M31.367 4H8.35l-.24.004a3.4 3.4 0 0 0-.52.047 1.66 1.66 0 0 0-1.223.905q-.118.238-.163.502a4 4 0 0 0-.046.529q-.003.12-.003.243v13.54q0 .121.003.242c.005.177.015.354.046.529q.045.264.163.503a1.68 1.68 0 0 0 1.223.904c.172.032.347.042.52.047a14 14 0 0 0 .524.004h23.017l.239-.004c.173-.005.349-.015.52-.046.175-.032.337-.084.496-.166a1.66 1.66 0 0 0 .727-.74c.081-.16.132-.325.163-.502.032-.175.042-.352.046-.529q.004-.12.004-.242V6.23q0-.122-.004-.243a4 4 0 0 0-.046-.529 1.8 1.8 0 0 0-.163-.503 1.7 1.7 0 0 0-.727-.739 1.7 1.7 0 0 0-.495-.165 3.4 3.4 0 0 0-.521-.047l-.24-.003z"/><path fill="#fff" d="M31.368 4.6h.28q.112 0 .227.004c.132.003.287.01.432.037a1.07 1.07 0 0 1 .801.587 1.2 1.2 0 0 1 .108.337c.026.145.033.302.036.438l.004.23v13.534q0 .115-.004.23a3 3 0 0 1-.037.44 1.2 1.2 0 0 1-.107.335 1.08 1.08 0 0 1-.8.586 3 3 0 0 1-.43.038q-.115.003-.231.003H8.354q-.115 0-.226-.003a3 3 0 0 1-.432-.037 1.2 1.2 0 0 1-.333-.11 1.06 1.06 0 0 1-.468-.477 1.2 1.2 0 0 1-.108-.337 3 3 0 0 1-.037-.438l-.004-.23V6.233q0-.116.004-.23a3 3 0 0 1 .037-.44c.022-.127.056-.233.108-.336a1.08 1.08 0 0 1 .8-.586c.145-.026.3-.034.433-.037l.227-.004z"/><path fill="#000" d="M13.714 9.963c.237-.297.398-.695.356-1.102-.347.018-.77.23-1.016.526-.22.254-.415.67-.364 1.059.39.034.779-.195 1.024-.483m.352.559c-.566-.034-1.047.32-1.318.32-.27 0-.684-.303-1.131-.295a1.67 1.67 0 0 0-1.419.862c-.608 1.048-.16 2.602.431 3.456.287.422.633.887 1.09.87.43-.017.599-.279 1.122-.279s.676.279 1.132.27c.473-.008.768-.422 1.055-.844.33-.482.465-.947.473-.972-.008-.009-.912-.355-.92-1.394-.009-.87.71-1.284.743-1.31-.405-.6-1.039-.667-1.258-.684m4.926-1.178c1.23 0 2.086.848 2.086 2.082 0 1.238-.874 2.09-2.117 2.09h-1.362v2.166h-.984V9.344zm-1.393 3.347h1.129c.856 0 1.344-.461 1.344-1.26 0-.8-.488-1.257-1.34-1.257H17.6zm3.735 1.679c0-.809.62-1.305 1.718-1.367l1.264-.074v-.356c0-.514-.347-.821-.926-.821-.55 0-.892.263-.976.676h-.896c.053-.835.765-1.45 1.907-1.45 1.12 0 1.836.594 1.836 1.52v3.185h-.91v-.76h-.021c-.268.514-.852.839-1.459.839-.904 0-1.537-.562-1.537-1.392m2.982-.418v-.364l-1.137.07c-.567.04-.887.29-.887.685 0 .404.333.668.843.668.663 0 1.181-.457 1.181-1.059m1.803 3.429v-.768c.07.017.228.017.307.017.44 0 .677-.184.822-.659 0-.008.083-.28.083-.285l-1.669-4.626h1.028l1.168 3.76h.018l1.168-3.76h1.002l-1.731 4.863c-.395 1.12-.852 1.48-1.81 1.48-.079 0-.316-.009-.386-.022"/></svg>