<svg xmlns="http://www.w3.org/2000/svg" fill="none" viewBox="0 0 40 26"><path fill="#fff" d="M0 0h40v26H0z"/><path fill="#1E3764" d="M5 22.167v-4.333h1.337c.972 0 1.597.365 1.597 1.12 0 .428-.198.725-.476.898.402.186.637.545.637 1.034 0 .873-.637 1.281-1.628 1.281zm.86-2.532h.638c.39 0 .557-.192.557-.544 0-.378-.303-.502-.712-.502H5.86zm0 1.777h.533c.52 0 .823-.13.823-.538 0-.403-.26-.57-.749-.57H5.86zm3.904.83c-.848 0-1.275-.415-1.275-.972 0-.613.501-.972 1.244-.978q.278.005.551.05v-.15c0-.377-.217-.557-.631-.557a2.2 2.2 0 0 0-.818.149l-.154-.668c.266-.112.693-.186 1.07-.186.91 0 1.363.483 1.363 1.318v1.721c-.254.13-.73.273-1.35.273m.52-.7v-.662a2 2 0 0 0-.44-.05c-.284 0-.507.112-.507.403 0 .26.186.396.514.396a1 1 0 0 0 .433-.087m1.431.625v-2.965a3.8 3.8 0 0 1 1.4-.272c.903 0 1.423.445 1.423 1.269v1.968h-.854v-1.906c0-.427-.198-.626-.576-.626a1.3 1.3 0 0 0-.545.112v2.42zm5.808-3.052-.16.675a1.9 1.9 0 0 0-.7-.155c-.502 0-.774.353-.774.935 0 .638.285.966.817.966a1.75 1.75 0 0 0 .687-.161l.137.687c-.28.125-.585.186-.892.18-1.028 0-1.622-.638-1.622-1.647 0-1.003.588-1.665 1.573-1.665.32-.002.639.061.934.186m1.846 3.127c-.953 0-1.548-.663-1.548-1.66 0-.99.595-1.652 1.548-1.652.96 0 1.541.662 1.541 1.653 0 .996-.582 1.659-1.541 1.659m0-.706c.44 0 .669-.365.669-.953 0-.582-.23-.948-.669-.948-.433 0-.675.366-.675.948 0 .588.242.953.675.953m2.036.631v-2.965a3.8 3.8 0 0 1 1.399-.272c.904 0 1.424.445 1.424 1.269v1.968h-.855v-1.906c0-.427-.198-.626-.575-.626a1.3 1.3 0 0 0-.545.112v2.42zm4.75.075c-.737 0-1.115-.403-1.115-1.22v-1.337h-.42v-.681h.42v-.687l.854-.044v.731h.688v.681h-.688v1.325c0 .359.149.526.428.526q.165 0 .328-.037l.043.687q-.267.06-.539.056m2.156 0c-.848 0-1.276-.415-1.276-.972 0-.613.502-.972 1.245-.978q.276.005.55.05v-.15c0-.377-.216-.557-.63-.557a2.2 2.2 0 0 0-.818.149l-.155-.668c.267-.112.694-.186 1.071-.186.91 0 1.362.483 1.362 1.318v1.721c-.254.13-.73.273-1.35.273m.52-.7v-.662a2 2 0 0 0-.44-.05c-.285 0-.507.112-.507.403 0 .26.185.396.513.396a1 1 0 0 0 .434-.087m3.752-2.427-.16.675a1.9 1.9 0 0 0-.7-.155c-.502 0-.774.353-.774.935 0 .638.285.966.817.966.238-.007.471-.061.687-.161l.136.687c-.28.125-.584.186-.891.18-1.028 0-1.622-.638-1.622-1.647 0-1.003.588-1.665 1.572-1.665.321-.002.64.061.935.186m1.878 3.127c-.736 0-1.114-.403-1.114-1.22v-1.337h-.42v-.681h.42v-.687l.854-.044v.731h.688v.681H34.2v1.325c0 .359.149.526.428.526q.165 0 .328-.037l.043.687q-.266.06-.539.056"/><path fill="url(#a)" d="M10.959 15.668c4.52 0 6.78-3.014 9.041-6.027H5v6.027z"/><path fill="url(#b)" d="M29.041 3.613c-4.52 0-6.78 3.014-9.041 6.028h15V3.613z"/><defs><linearGradient id="a" x1="8.034" x2="19.007" y1="12.933" y2="8.857" gradientUnits="userSpaceOnUse"><stop stop-color="#005AB9"/><stop offset="1" stop-color="#1E3764"/></linearGradient><linearGradient id="b" x1="20.908" x2="32.559" y1="10.164" y2="6.188" gradientUnits="userSpaceOnUse"><stop stop-color="#FBA900"/><stop offset="1" stop-color="#FFD800"/></linearGradient></defs></svg>