<svg xmlns="http://www.w3.org/2000/svg" fill="none" viewBox="0 0 40 26"><path fill="#030303" d="M0 0h40v26H0z"/><path fill="#fff" d="M17.043 7.522h1.994v11.17h-1.994zM20.74 11.3h1.993v7.4H20.74zm10.935 7.4-2.99-3.923L31.43 11.3h-2.355l-2.637 3.379V7.522h-1.993v11.18h1.993v-3.806l2.637 3.805zM11.96 11.218c-.626 0-1.243.156-1.794.453V7.513H8.174v7.474a3.787 3.787 0 1 0 3.787-3.778zm0 5.572a1.793 1.793 0 1 1-.018-3.587 1.793 1.793 0 0 1 .018 3.587"/><path fill="url(#a)" d="M13.9 10.53a1.776 1.776 0 1 0 0-3.552 1.776 1.776 0 0 0 0 3.552"/><defs><radialGradient id="a" cx="0" cy="0" r="1" gradientTransform="translate(12.46 6.878)scale(5.82531)" gradientUnits="userSpaceOnUse"><stop stop-color="red"/><stop offset=".49" stop-color="#E83E49"/><stop offset="1" stop-color="#F0F"/></radialGradient></defs></svg>