<svg xmlns="http://www.w3.org/2000/svg" fill="none" viewBox="0 0 40 26"><path fill="#fff" d="M0 0h40v26H0z"/><path fill="#fff" d="M6.154 4h27.692v18H6.154z"/><path fill="#1A1918" d="M8.016 21.999h1.29V3.99h-1.29zm1.698 0h.4V3.99h-.4zm.748 0h.716V3.99h-.716zm1.407 0h.4V3.99h-.4zm.574 0h.308V3.99h-.308zm-5.409 0h.4V3.99h-.4zm-.882 0h.716V3.99h-.716zm8.737 0h1.29V3.99h-1.29zm1.697 0h.4V3.99h-.4zm.749 0h.715V3.99h-.715zm1.405 0h.4V3.99h-.4zm.575 0h.308V3.99h-.308zm-5.408 0h.4V3.99h-.4zm-.882 0h.716V3.99h-.716zm7.105 0h.716V3.99h-.716zm1.406 0h.4V3.99h-.4zm.574 0h.309V3.99h-.308zm1.465 0h.4V3.99h-.4zm-.882 0h.716V3.99h-.716zm1.814 0h.4V3.99h-.4zm.573 0h.309V3.99h-.308zm1.465 0h.4V3.99h-.4zm-.882 0h.716V3.99h-.716zm1.631 0h1.29V3.99h-1.29zm1.698 0h.4V3.99h-.4zm.748 0h.716V3.99h-.716zm1.406 0h.4V3.99h-.4zm.574 0h.309V3.99h-.309zm.816 0h1.29V3.99h-1.29z"/><path fill="#fff" d="M7.613 22.028h24.74v-7.233H7.613z"/><path fill="#1A1918" d="M8.079 21.75v-6.544h2.3a2.7 2.7 0 0 1 1.126.198c.28.13.512.344.664.612.157.26.24.56.241.864a1.54 1.54 0 0 1-.854 1.388c.343.096.644.305.854.594.203.29.308.637.3.99.002.296-.06.588-.183.856-.1.236-.254.444-.45.61a1.9 1.9 0 0 1-.67.323 3.8 3.8 0 0 1-.99.11zm.813-3.793h1.325q.391.016.774-.076a.86.86 0 0 0 .466-.328 1 1 0 0 0 .157-.573c.005-.2-.046-.4-.147-.574a.75.75 0 0 0-.418-.341 3.3 3.3 0 0 0-.931-.092H8.892zm0 3.025h1.526q.279.008.554-.032c.166-.027.325-.088.468-.178a.93.93 0 0 0 .31-.365c.083-.172.125-.362.12-.553a1.14 1.14 0 0 0-.176-.639.93.93 0 0 0-.488-.38 2.8 2.8 0 0 0-.896-.11H8.892zm4.554-1.604a2.53 2.53 0 0 1 .686-1.947c.38-.35.88-.538 1.397-.525a1.93 1.93 0 0 1 1.496.64 2.53 2.53 0 0 1 .58 1.765 3.3 3.3 0 0 1-.256 1.437c-.163.34-.424.623-.75.813a2.07 2.07 0 0 1-1.07.29 1.93 1.93 0 0 1-1.508-.637 2.65 2.65 0 0 1-.575-1.836m.77.002a2.1 2.1 0 0 0 .372 1.36 1.196 1.196 0 0 0 1.875-.001c.278-.406.41-.895.372-1.385a2.03 2.03 0 0 0-.375-1.328 1.196 1.196 0 0 0-1.872-.004 2.1 2.1 0 0 0-.372 1.358m4.255 2.37h.754v-6.544h-.754zm4.949-1.535.78.11c-.096.44-.335.836-.68 1.125-.363.278-.812.42-1.268.4a1.96 1.96 0 0 1-1.54-.639 2.6 2.6 0 0 1-.57-1.793 2.73 2.73 0 0 1 .575-1.852 1.89 1.89 0 0 1 1.493-.66 1.83 1.83 0 0 1 1.451.646c.404.517.604 1.164.564 1.819l-.005.213h-3.308a1.9 1.9 0 0 0 .414 1.194 1.2 1.2 0 0 0 .926.415c.255.007.504-.076.704-.234a1.55 1.55 0 0 0 .464-.744m-2.465-1.29h2.474a1.67 1.67 0 0 0-.284-.896 1.12 1.12 0 0 0-.93-.465 1.16 1.16 0 0 0-.87.37 1.53 1.53 0 0 0-.39.992m5.831 2.107.102.71a2.6 2.6 0 0 1-.566.071 1.2 1.2 0 0 1-.635-.139.76.76 0 0 1-.317-.364 3.1 3.1 0 0 1-.09-.95v-2.733h-.557v-.622h.556v-1.173l.753-.482v1.655h.753v.622h-.753v2.779q-.015.224.04.443c.025.064.07.12.129.157a.5.5 0 0 0 .256.058q.166-.005.328-.032m.461-1.655a2.53 2.53 0 0 1 .687-1.947c.38-.35.88-.538 1.396-.525a1.93 1.93 0 0 1 1.497.64c.41.493.618 1.124.58 1.765.023.492-.065.983-.256 1.437-.163.34-.424.623-.75.813a2.07 2.07 0 0 1-1.07.29 1.93 1.93 0 0 1-1.509-.637 2.65 2.65 0 0 1-.575-1.836m.77.002c-.036.483.096.963.373 1.36a1.197 1.197 0 0 0 1.875-.001c.278-.406.41-.895.372-1.385.033-.473-.1-.943-.375-1.328a1.197 1.197 0 0 0-1.872-.004 2.1 2.1 0 0 0-.372 1.358"/></svg>