<svg xmlns="http://www.w3.org/2000/svg" fill="none" viewBox="0 0 40 26"><path fill="#111211" d="M0 0h40v26H0z"/><path fill="#fff" d="M18.923 9.468v2.527h1.559c.345.01.68-.125.92-.374a1.269 1.269 0 0 0-.92-2.153zm0 3.417v2.93h-.93V8.58h2.468a2.23 2.23 0 0 1 1.599.626 2.09 2.09 0 0 1 0 3.063 2.23 2.23 0 0 1-1.599.616zm4.746 1.415a.74.74 0 0 0 .309.606c.206.162.461.247.723.242.393 0 .77-.156 1.047-.434.293-.258.46-.63.46-1.02a1.9 1.9 0 0 0-1.214-.344 1.58 1.58 0 0 0-.946.273.81.81 0 0 0-.38.676m1.204-3.599a2.3 2.3 0 0 1 1.63.551c.408.393.626.945.596 1.511v3.053h-.89v-.688h-.04a1.78 1.78 0 0 1-1.539.85 2 2 0 0 1-1.37-.486c-.358-.3-.56-.746-.552-1.213a1.47 1.47 0 0 1 .582-1.223 2.45 2.45 0 0 1 1.553-.455 2.75 2.75 0 0 1 1.365.304v-.213a1.06 1.06 0 0 0-.384-.824 1.32 1.32 0 0 0-.9-.338 1.43 1.43 0 0 0-1.235.657l-.82-.516a2.29 2.29 0 0 1 2.004-.97m7.336.163L29.102 18h-.96l1.152-2.497-2.044-4.639h1.012l1.477 3.557h.02l1.438-3.557z"/><path fill="#547DBE" d="M15.162 12.254q0-.426-.072-.846h-3.926v1.602h2.249a1.93 1.93 0 0 1-.832 1.264v1.04h1.342a4.07 4.07 0 0 0 1.239-3.06"/><path fill="#34A751" d="M11.163 16.318c1.014.028 2-.33 2.76-1.004l-1.343-1.04a2.526 2.526 0 0 1-3.754-1.319H7.443v1.072a4.16 4.16 0 0 0 3.72 2.29"/><path fill="#F7BA16" d="M8.826 12.954a2.5 2.5 0 0 1 0-1.592v-1.071H7.443a4.15 4.15 0 0 0 0 3.735z"/><path fill="#E84334" d="M11.163 9.646a2.26 2.26 0 0 1 1.597.624l1.188-1.186A4 4 0 0 0 11.163 8a4.16 4.16 0 0 0-3.72 2.292l1.383 1.071a2.49 2.49 0 0 1 2.337-1.717"/></svg>