<svg xmlns="http://www.w3.org/2000/svg" fill="none" viewBox="0 0 40 26"><path fill="#C06" d="M0 0h40v26H0z"/><path fill="#fff" d="M0 0h40v26H0z"/><path fill="#000" fill-rule="evenodd" d="M20.979 23h-10.32A1.654 1.654 0 0 1 9 21.353V4.647C9 3.737 9.743 3 10.66 3h10.319c9.792 0 11.253 6.255 11.253 9.979C32.232 19.439 28.23 23 20.98 23M10.659 3.55c-.613 0-1.106.488-1.106 1.097v16.706c0 .609.493 1.098 1.106 1.098h10.32c6.897 0 10.7-3.364 10.7-9.472 0-8.203-6.707-9.43-10.7-9.43zm1.781 10.81a1.61 1.61 0 0 0 1.616-1.604 1.61 1.61 0 0 0-1.616-1.605 1.61 1.61 0 0 0-1.616 1.604 1.61 1.61 0 0 0 1.616 1.605m-1.227 4.041a2.435 2.435 0 0 0 2.446 2.428h.008v-4.324c0-.678-.553-1.218-1.227-1.218-.683 0-1.227.549-1.227 1.218z" clip-rule="evenodd"/><path fill="#C06" d="M15.327 6.26v14.57h6.387c5.8 0 8.314-3.252 8.314-7.851 0-4.402-2.515-7.817-8.314-7.817h-5.281c-.614 0-1.106.498-1.106 1.098"/><path fill="#fff" fill-rule="evenodd" d="M18.205 11.117a1.9 1.9 0 0 0-.631-.103v-.009h-1.495v3.484h1.512c.268 0 .501-.052.7-.138.199-.094.363-.214.493-.369a1.6 1.6 0 0 0 .294-.557c.06-.215.095-.447.095-.704a2.2 2.2 0 0 0-.121-.755 1.8 1.8 0 0 0-.337-.532 1.4 1.4 0 0 0-.51-.317m-.355 2.685a1.1 1.1 0 0 1-.328.052v.008h-.683v-2.196h.553q.283 0 .476.077a.8.8 0 0 1 .31.232.9.9 0 0 1 .174.36 2 2 0 0 1 .052.472c0 .197-.026.352-.078.489a1 1 0 0 1-.199.326.65.65 0 0 1-.277.18m4.443-2.145v-.652h-2.619v3.484h2.662v-.644h-1.893v-.85h1.703v-.591h-1.703v-.747zm2.645-.643 1.314 3.483h-.804l-.268-.772h-1.314l-.276.772h-.778l1.322-3.483zm.043 2.136-.44-1.278h-.01l-.457 1.278zm2.523.704v-2.84h-.769v3.483h2.48v-.643z" clip-rule="evenodd"/></svg>