<svg xmlns="http://www.w3.org/2000/svg" fill="none" viewBox="0 0 40 26"><path fill="#fff" d="M0 0h40v26H0z"/><path fill="#fff" d="M1 .65h38v24.7H1z"/><g clip-path="url(#a)"><path fill="#FFB3C7" d="M33.816 3.5H6.184A3.284 3.284 0 0 0 2.9 6.784v12.432A3.284 3.284 0 0 0 6.184 22.5h27.632a3.284 3.284 0 0 0 3.284-3.284V6.784A3.284 3.284 0 0 0 33.816 3.5"/><path fill="#0A0B09" d="M33.904 14.631a.814.814 0 0 0-.81.818c0 .451.362.817.81.817.447 0 .81-.366.81-.817a.814.814 0 0 0-.81-.818M31.238 14c0-.618-.524-1.12-1.17-1.12s-1.17.502-1.17 1.12.524 1.12 1.17 1.12 1.17-.502 1.17-1.12m.004-2.175h1.291v4.35h-1.29v-.278a2.25 2.25 0 0 1-1.28.399A2.285 2.285 0 0 1 27.688 14a2.285 2.285 0 0 1 2.275-2.295c.474 0 .915.147 1.28.398zm-10.33.566v-.566h-1.321v4.35h1.324v-2.03c0-.686.736-1.055 1.247-1.055l.015.001v-1.266c-.524 0-1.006.227-1.265.567M17.62 14c0-.619-.523-1.12-1.17-1.12-.645 0-1.169.501-1.169 1.12 0 .617.524 1.118 1.17 1.118s1.17-.5 1.17-1.119m.005-2.176h1.29v4.35h-1.29v-.278a2.25 2.25 0 0 1-1.28.399 2.285 2.285 0 0 1-2.275-2.296 2.285 2.285 0 0 1 2.275-2.295c.475 0 .915.147 1.28.398zm7.77-.117c-.516 0-1.005.161-1.33.607v-.49H22.78v4.35h1.301v-2.286c0-.661.44-.985.97-.985.566 0 .892.342.892.976v2.295h1.29v-2.766c0-1.013-.798-1.701-1.838-1.701M12.19 16.174h1.351V9.885H12.19zm-5.935.002h1.43V9.884h-1.43zm5.004-6.292c0 1.362-.526 2.63-1.464 3.571l1.978 2.721h-1.767l-2.15-2.957.555-.42A3.62 3.62 0 0 0 9.86 9.885z"/></g><defs><clipPath id="a"><path fill="#fff" d="M2.9 3.5h34.2v19H2.9z"/></clipPath></defs></svg>