<svg xmlns="http://www.w3.org/2000/svg" fill="none" viewBox="0 0 40 26"><path fill="#000" d="M0 0h40v26H0z"/><path fill="#F06022" d="M16.133 19.29h7.735V6.71h-7.735z"/><path fill="#EA1D25" d="M16.931 13a7.9 7.9 0 0 1 .805-3.493A8 8 0 0 1 20 6.71 8.02 8.02 0 0 0 15.034 5 8.13 8.13 0 0 0 9.35 7.361 7.96 7.96 0 0 0 7 13c0 2.113.845 4.14 2.35 5.639a8.13 8.13 0 0 0 5.684 2.36A8.02 8.02 0 0 0 20 19.29a8 8 0 0 1-2.264-2.796A7.9 7.9 0 0 1 16.93 13"/><path fill="#F79D1D" d="M33 13a7.93 7.93 0 0 1-2.343 5.646A8.1 8.1 0 0 1 24.966 21 8.02 8.02 0 0 1 20 19.29a8.05 8.05 0 0 0 2.262-2.798 7.96 7.96 0 0 0 0-6.984A8.05 8.05 0 0 0 20 6.71 8.02 8.02 0 0 1 24.966 5a8.1 8.1 0 0 1 5.691 2.354A7.93 7.93 0 0 1 33 13"/></svg>