<svg xmlns="http://www.w3.org/2000/svg" fill="none" viewBox="0 0 40 26"><path fill="#236BB4" d="M0 0h40v26H0z"/><path fill="#fff" d="M20.374 19.115h6.928c1.582 0 1.598-1.682 1.437-2.513a.599.599 0 0 0-1.14 0v.648a.54.54 0 0 1-.54.539H13.778a.54.54 0 0 1-.538-.539v-.648a.598.598 0 0 0-1.14 0c-.162.83-.146 2.513 1.436 2.513zM15.476 3h10.683a1.41 1.41 0 0 1 1.364 1.445v.69a.664.664 0 1 1-1.322.007v-.377a.437.437 0 0 0-.436-.436H15.06a.437.437 0 0 0-.436.436v.37a.635.635 0 1 1-1.26.02v-.71A1.41 1.41 0 0 1 14.73 3zm11.777 7.938a2.11 2.11 0 0 1 1.251 1.893 2.196 2.196 0 0 1-2.257 2.116h-3.479a.576.576 0 0 1-.591-.555V7.77c0-.32.26-.58.58-.581h2.898a2.214 2.214 0 0 1 1.598 3.75m-2.596-.54h1.104v-.011c.512-.08.89-.521.892-1.04a1.054 1.054 0 0 0-1.05-1.05h-2.226v5.496H26.2a1.085 1.085 0 0 0 0-2.171h-.438v-.003h-1.104a.61.61 0 0 1 0-1.22m-8.741 10.749a.187.187 0 0 1 .373 0v1.01a.84.84 0 0 1-.838.837.84.84 0 0 1-.838-.837v-1.01a.187.187 0 0 1 .373 0v1.01c0 .256.208.464.465.465a.47.47 0 0 0 .466-.466h-.001zm1.763 1.475a.187.187 0 0 1 0 .373h-.515a.7.7 0 0 1-.7-.702h-.001V21.15a.187.187 0 1 1 .373 0v1.146h-.001a.33.33 0 0 0 .329.33v-.001zm3.944-8.339a.698.698 0 1 1-1.389.148l-.572-5.267-2.026 5.15-.002.005-.006.014-.004.01-.001.003-.005.011-.003.007-.005.01-.002.004-.006.01-.002.005a.7.7 0 0 1-.141.184l-.002.002-.01.01a.7.7 0 0 1-.121.085l-.003.002-.014.007-.012.006-.006.003-.008.004-.008.004-.007.003-.01.004-.007.003-.007.003-.006.003-.004.001-.006.002-.01.004-.004.002a.7.7 0 0 1-.205.038h-.051a.7.7 0 0 1-.229-.047l-.009-.004-.002-.001-.01-.004-.009-.004-.007-.003-.008-.004-.008-.004-.005-.002-.013-.007h-.001l-.01-.007-.007-.003a1 1 0 0 1-.107-.074l-.002-.002-.023-.02v-.001l-.018-.017-.017-.017v-.001l-.021-.023-.002-.003a1 1 0 0 1-.074-.106l-.004-.006-.006-.011v-.002l-.007-.012-.002-.005-.004-.008-.004-.009-.003-.007-.004-.009-.004-.01-.001-.001-.004-.01-2.028-5.155-.572 5.267a.698.698 0 1 1-1.389-.148l.675-6.21v-.004c.06-.528.47-.948.998-1.02l.039-.004q.087-.01.176-.006h.003q.106.005.21.029c.37.085.675.348.812.701l1.727 4.388 1.726-4.388a1.15 1.15 0 0 1 1.023-.73h.002q.09-.003.177.006l.037.004h.002a1.16 1.16 0 0 1 .997 1.02v.005zm-7.079 8.503a.186.186 0 1 1-.37.044l-.16-1.344-.57 1.322a.186.186 0 0 1-.343 0l-.57-1.322-.16 1.344a.186.186 0 1 1-.37-.044l.185-1.56a.3.3 0 0 1 .2-.248l.014-.006a.3.3 0 0 1 .055-.011h.003a.32.32 0 0 1 .299.126l.021.035.01.02.484 1.122.483-1.122a.31.31 0 0 1 .273-.184h.042l.014.002h.002a.31.31 0 0 1 .232.15.3.3 0 0 1 .035.09l.005.024v.001zm3.95.022a.187.187 0 0 1-.373 0v-1.475h-.53a.187.187 0 1 1 0-.373h1.434a.187.187 0 0 1 0 .373h-.53zm1.178 0a.194.194 0 0 1-.387 0v-1.662a.194.194 0 0 1 .387 0zm3.813-.022a.187.187 0 1 1-.37.045l-.066-.527h-.646a.187.187 0 0 1 0-.374h.6l-.017-.137v-.001l-.002-.013a.7.7 0 0 0-.06-.194.42.42 0 0 0-.377-.252h-.002a.4.4 0 0 0-.177.042.52.52 0 0 0-.26.416l-.116 1.038a.186.186 0 1 1-.37-.041l.116-1.038a.9.9 0 0 1 .461-.707.75.75 0 0 1 .346-.082v-.001h.002c.306.002.583.18.71.459a1 1 0 0 1 .095.31l.004.017v.002zm.571.022a.187.187 0 1 1-.373 0v-1.544l.002-.032a.3.3 0 0 1 .015-.06l.015-.034a.26.26 0 0 1 .146-.123l.026-.007.02-.004h.001v-.001l.045-.002h.005c.077.003.15.04.197.101l.993 1.267v-1.223a.187.187 0 0 1 .373 0v1.537a.26.26 0 0 1-.135.23l-.024.012h-.002l-.015.007h-.003a.26.26 0 0 1-.2-.01l-.024-.013a.3.3 0 0 1-.06-.053l-.007-.007-.002-.003-.993-1.267zm2.913-.187a.187.187 0 0 1 0 .374h-.549v-.001a.737.737 0 0 1-.735-.736v-.562c0-.406.329-.735.735-.736h.55a.187.187 0 0 1 0 .373h-.55a.366.366 0 0 0-.363.363v.562c0 .2.163.363.363.364zm1.08-1.289v.001a.5.5 0 0 0-.353.14.46.46 0 0 0-.144.33v.349a.46.46 0 0 0 .143.329.51.51 0 0 0 .707 0 .46.46 0 0 0 .145-.33v-.348a.46.46 0 0 0-.144-.33.5.5 0 0 0-.354-.14m0-.372c.228 0 .447.088.612.245a.83.83 0 0 1 .258.598v.348a.83.83 0 0 1-.258.598.88.88 0 0 1-.611.245h-.001a.88.88 0 0 1-.611-.245.83.83 0 0 1-.258-.598v-.348c0-.226.094-.442.258-.598a.88.88 0 0 1 .61-.245zm-7.861.372v1.289h.72a.233.233 0 0 0 .172-.394l-.006-.006a.23.23 0 0 0-.166-.07h-.248a.187.187 0 0 1 0-.373h.085a.22.22 0 0 0 .14-.066h.001a.22.22 0 0 0 .066-.157h-.001a.225.225 0 0 0-.223-.224v.001zm-.373.633v-.811q0-.039.015-.075a.2.2 0 0 1 .043-.064l.002-.002a.2.2 0 0 1 .123-.053h.01v-.001h.72a.597.597 0 0 1 .595.596h.001a.6.6 0 0 1-.092.317.6.6 0 0 1 .105.085l.012.012a.6.6 0 0 1 .166.416v.001a.61.61 0 0 1-.606.607v.001h-.908a.187.187 0 0 1-.187-.187z"/></svg>