<svg xmlns="http://www.w3.org/2000/svg" fill="none" viewBox="0 0 40 26"><path fill="#fff" d="M0 0h40v26H0z"/><path fill="#253B80" d="m16.912 20.988.282-1.822-.627-.015H13.57l2.082-13.443a.18.18 0 0 1 .058-.105.17.17 0 0 1 .111-.041h5.05c1.678 0 2.835.355 3.439 1.056.283.33.463.673.55 1.052.092.397.094.87.005 1.45l-.007.042v.37l.283.164q.357.192.574.445c.242.281.399.639.465 1.063.068.436.046.955-.066 1.542-.13.676-.338 1.264-.62 1.745q-.392.668-.983 1.097c-.375.271-.82.477-1.324.608a6.5 6.5 0 0 1-1.654.195h-.393a1.18 1.18 0 0 0-.768.288 1.22 1.22 0 0 0-.401.728l-.03.164-.497 3.211-.023.118c-.006.037-.016.056-.031.069a.1.1 0 0 1-.052.019z"/><path fill="#179BD7" d="M25.41 9.205a9 9 0 0 1-.051.301c-.666 3.483-2.945 4.686-5.856 4.686h-1.481a.724.724 0 0 0-.712.62l-.758 4.901-.215 1.39a.384.384 0 0 0 .374.446h2.628c.312 0 .576-.23.625-.543l.026-.136.495-3.198.031-.176a.636.636 0 0 1 .625-.544h.393c2.546 0 4.54-1.053 5.122-4.1.244-1.272.118-2.335-.526-3.083a2.5 2.5 0 0 0-.72-.564"/><path fill="#222D65" d="M24.714 8.921a5 5 0 0 0-.648-.146 8 8 0 0 0-1.306-.097H18.8a.6.6 0 0 0-.272.063.64.64 0 0 0-.351.481l-.842 5.432-.025.159a.724.724 0 0 1 .712-.621h1.482c2.91 0 5.189-1.204 5.855-4.686q.03-.154.051-.302a3.5 3.5 0 0 0-.696-.283"/><path fill="#253B80" d="M18.177 9.222a.64.64 0 0 1 .624-.543h3.959q.705-.002 1.306.097.171.028.333.064a5 5 0 0 1 .464.13q.296.099.548.234c.198-1.287-.002-2.163-.685-2.956C23.973 5.374 22.613 5 20.873 5h-5.05a.726.726 0 0 0-.714.621l-2.104 13.581a.44.44 0 0 0 .428.511h3.119l.783-5.059z"/></svg>