<svg xmlns="http://www.w3.org/2000/svg" fill="none" viewBox="0 0 40 26"><path fill="#fff" d="M0 0h40v26H0z"/><path fill="#fff" d="M1.5 1h36.923v24H1.5z"/><path fill="#1434CB" d="m16.186 8.101-4.11 9.803h-2.68l-2.023-7.822c-.122-.482-.228-.658-.603-.861-.61-.33-1.616-.64-2.5-.834l.06-.284h4.315c.55 0 1.045.366 1.169 1l1.067 5.672 2.64-6.672h2.665zm10.502 6.604c.011-2.588-3.578-2.73-3.554-3.885.008-.352.344-.726 1.076-.821.363-.047 1.365-.083 2.5.438l.445-2.08a6.8 6.8 0 0 0-2.371-.434c-2.508 0-4.272 1.332-4.286 3.242-.017 1.41 1.258 2.198 2.22 2.667.988.48 1.32.79 1.315 1.218-.006.657-.788.948-1.518.96-1.275.02-2.014-.345-2.604-.62l-.46 2.148c.592.271 1.688.508 2.82.521 2.666 0 4.409-1.315 4.417-3.354m6.62 3.2h2.346l-2.048-9.804H31.44a1.15 1.15 0 0 0-1.078.72l-3.806 9.083h2.663l.53-1.465h3.252zm-2.83-3.473 1.336-3.681.768 3.681zm-10.67-6.33-2.097 9.802h-2.536l2.098-9.803z"/></svg>